# xmcd
#
# Track frame offsets: 
#        150
#        9564
#        19027
#        30433
#        48127
#        59896
#        77741
#        102523
#        118599
#        135523
#        153083
#        171332
#        186278
#        211358
#        228468
#        242202
#        258854
#        269837
#
# Disc length: 3699 seconds
#
# Revision: 0
# Processed by: cddbd v1.5.2PL0 Copyright (c) Steve Scherf et al.
# Submitted via: ExactAudioCopy v0.95a4
#
DISCID=f70e7112
DTITLE=Cyclown Circus - Such a dude is this...
DYEAR=2008
DGENRE=Blues
TTITLE0=Postage Stamp
TTITLE1=I Get The Blues When
TTITLE2=Viper Mad
TTITLE3=Hora Serries
TTITLE4=That's a Plenty
TTITLE5=Dontcha Feel My Leg
TTITLE6=Tishomingo
TTITLE7=Tiger Rog
TTITLE8=Dyin' Blues
TTITLE9=Mohologeaska
TTITLE10=Sugar
TTITLE11=Hoya Bibi
TTITLE12=Mean Blue Spirits
TTITLE13=Lovesick
TTITLE14=Rooster
TTITLE15=Sweet Salty Man Tears
TTITLE16=Two Mangas In Jail
TTITLE17=Jellyroll
EXTD=
EXTT0=
EXTT1=
EXTT2=
EXTT3=
EXTT4=
EXTT5=
EXTT6=
EXTT7=
EXTT8=
EXTT9=
EXTT10=
EXTT11=
EXTT12=
EXTT13=
EXTT14=
EXTT15=
EXTT16=
EXTT17=
PLAYORDER=
